<?xml version="1.0" encoding="UTF-8"?>
<!-- Dense vector PCB backdrop; the centered Plymouth snowflake is the primary processor. -->
<svg xmlns="http://www.w3.org/2000/svg" width="1600" height="1000" viewBox="0 0 1600 1000" version="1.1">
  <defs>
    <style>
      .trace { fill:none; stroke:#9b3c18; stroke-width:2; stroke-linecap:square; stroke-linejoin:bevel }
      .fine { fill:none; stroke:#d45b25; stroke-width:1.15; stroke-linecap:square; stroke-linejoin:bevel }
      .hair { fill:none; stroke:#f08a43; stroke-width:.7; stroke-linecap:square; stroke-linejoin:bevel }
      .plane { fill:none; stroke:#371508; stroke-width:7; stroke-linecap:square; stroke-linejoin:bevel }
      .silk { fill:none; stroke:#596160; stroke-width:1 }
    </style>

    <g id="via">
      <circle r="5.3" fill="#030303" stroke="#6f2912" stroke-width="2"/>
      <circle r="2.8" fill="none" stroke="#d65e27" stroke-width="1.2"/>
      <circle r=".9" fill="#ff9a4b"/>
    </g>
    <g id="microvia">
      <circle r="3" fill="#020202" stroke="#a4411b" stroke-width="1.2"/>
      <circle r=".8" fill="#ef7d39"/>
    </g>
    <g id="testpad">
      <circle r="8" fill="#15100d" stroke="#783019" stroke-width="2"/>
      <circle r="4.8" fill="#bb5628" stroke="#f3944d" stroke-width=".8"/>
    </g>
    <g id="edgepad">
      <rect x="-7" y="-2.8" width="14" height="5.6" rx="1" fill="#a8441e"/>
      <rect x="-4" y="-1.2" width="8" height="2.4" fill="#ec803b" opacity=".7"/>
    </g>
    <g id="resistor">
      <path d="M-24 0h8M16 0h8" stroke="#d05a26" stroke-width="2"/>
      <rect x="-16" y="-6" width="32" height="12" rx="2" fill="#171a19" stroke="#74311b" stroke-width="1.4"/>
      <rect x="-11" y="-4" width="22" height="8" fill="#323836"/>
      <path d="M-6-4v8M5-4v8" stroke="#9c4b26" stroke-width="2"/>
    </g>
    <g id="capacitor">
      <path d="M-20 0h7M13 0h7" stroke="#d05a26" stroke-width="2"/>
      <rect x="-13" y="-7" width="26" height="14" rx="2" fill="#30251d" stroke="#8c3a1b" stroke-width="1.3"/>
      <rect x="-9" y="-5" width="18" height="10" fill="#a0441f"/>
      <path d="M4-5v10" stroke="#e28a4d" stroke-width="2"/>
    </g>
    <g id="soic">
      <rect x="-41" y="-25" width="82" height="50" rx="3" fill="#090b0b" stroke="#813518" stroke-width="2"/>
      <rect x="-34" y="-18" width="68" height="36" rx="2" fill="#181d1d" stroke="#343d3c"/>
      <circle cx="24" cy="-9" r="2.5" fill="#c55a29"/>
      <g fill="#ba4d20" stroke="#e27635" stroke-width=".5">
        <path d="M-53-19h12v6h-12zM-53-7h12v6h-12zM-53 5h12v6h-12zM-53 17h12v6h-12z"/>
        <path d="M41-19h12v6H41zM41-7h12v6H41zM41 5h12v6H41zM41 17h12v6H41z"/>
      </g>
      <path d="M-24-8h30M-24 0h44M-24 8h35" class="silk" opacity=".65"/>
    </g>
    <g id="qfp">
      <rect x="-48" y="-48" width="96" height="96" rx="4" fill="#080a0a" stroke="#8f3919" stroke-width="2"/>
      <rect x="-39" y="-39" width="78" height="78" rx="2" fill="#171c1c" stroke="#394241"/>
      <circle cx="27" cy="-27" r="3" fill="#dc672c"/>
      <g fill="#bd4d1f" stroke="#e47a36" stroke-width=".45">
        <path d="M-60-36h12v5h-12zM-60-24h12v5h-12zM-60-12h12v5h-12zM-60 0h12v5h-12zM-60 12h12v5h-12zM-60 24h12v5h-12zM-60 36h12v5h-12z"/>
        <path d="M48-36h12v5H48zM48-24h12v5H48zM48-12h12v5H48zM48 0h12v5H48zM48 12h12v5H48zM48 24h12v5H48zM48 36h12v5H48z"/>
        <path d="M-36-60h5v12h-5zM-24-60h5v12h-5zM-12-60h5v12h-5zM0-60h5v12H0zM12-60h5v12h-5zM24-60h5v12h-5zM36-60h5v12h-5z"/>
        <path d="M-36 48h5v12h-5zM-24 48h5v12h-5zM-12 48h5v12h-5zM0 48h5v12H0zM12 48h5v12h-5zM24 48h5v12h-5zM36 48h5v12h-5z"/>
      </g>
      <path d="M-25-14h37M-25-5h49M-25 4h32M-25 13h44" class="silk" opacity=".65"/>
    </g>
    <g id="controller">
      <rect x="-68" y="-38" width="136" height="76" rx="4" fill="#080a0a" stroke="#8e3919" stroke-width="2"/>
      <rect x="-58" y="-29" width="116" height="58" fill="#171c1c" stroke="#37403f"/>
      <circle cx="44" cy="-17" r="3" fill="#dc672c"/>
      <g fill="#be4e20">
        <path d="M-80-29h12v5h-12zM-80-18h12v5h-12zM-80-7h12v5h-12zM-80 4h12v5h-12zM-80 15h12v5h-12zM-80 26h12v5h-12z"/>
        <path d="M68-29h12v5H68zM68-18h12v5H68zM68-7h12v5H68zM68 4h12v5H68zM68 15h12v5H68zM68 26h12v5H68z"/>
      </g>
      <path d="M-42-15h53M-42-5h77M-42 5h44M-42 15h68" class="silk" opacity=".6"/>
    </g>
  </defs>

  <rect width="1600" height="1000" fill="#000000"/>

  <!-- Low copper shadows establish long routing hierarchy without a decorative frame. -->
  <g class="plane" opacity=".48">
    <path d="M0 116H116L166 166H278L334 222H448L500 274H586"/>
    <path d="M0 342H142L190 294H314L370 350H492L532 390H606"/>
    <path d="M0 674H126L180 620H302L358 676H462L510 724H586"/>
    <path d="M0 890H154L208 836H336L388 784H500L548 736"/>
    <path d="M1600 92H1470L1416 146H1300L1244 202H1132L1082 252H1022"/>
    <path d="M1600 314H1456L1404 366H1288L1234 420H1116L1070 466H994"/>
    <path d="M1600 644H1460L1408 592H1288L1238 642H1122L1072 692H1004"/>
    <path d="M1600 904H1466L1412 850H1294L1240 796H1122L1070 744"/>
    <path d="M250 0V88L302 140V226L354 278V354L430 430"/>
    <path d="M514 0V84L562 132V220L610 268V342L658 390"/>
    <path d="M1088 0V82L1038 132V220L990 268V342L942 390"/>
    <path d="M1350 0V92L1298 144V232L1246 284V354L1182 418"/>
    <path d="M286 1000V906L338 854V766L390 714V650L450 590"/>
    <path d="M534 1000V908L582 860V774L630 726V660L674 616"/>
    <path d="M1070 1000V908L1018 856V770L970 722V658L926 614"/>
    <path d="M1330 1000V910L1278 858V772L1226 720V650L1170 594"/>
  </g>

  <!-- West buses: parallel lanes split around controllers and fan into the CPU region. -->
  <g class="fine">
    <path d="M0 104H112L164 156H270L322 208H438L490 260H570L604 294H642" opacity=".38"/>
    <path d="M0 116H106L158 168H264L316 220H432L484 272H562L596 306H636" opacity=".48"/>
    <path d="M0 128H100L152 180H258L310 232H426L478 284H554L588 318H630" opacity=".62"/>
    <path d="M0 140H94L146 192H252L304 244H420L472 296H546L580 330H624" opacity=".76"/>
    <path d="M0 314H134L182 266H300L350 316H470L514 360H600L630 390H666" opacity=".42"/>
    <path d="M0 326H140L188 278H294L344 328H464L508 372H594L624 402H660" opacity=".58"/>
    <path d="M0 338H146L194 290H288L338 340H458L502 384H588L618 414H654" opacity=".72"/>
    <path d="M0 350H152L200 302H282L332 352H452L496 396H582L612 426H648" opacity=".48"/>
    <path d="M0 370H92L130 408H250L288 446H430L470 486H590L620 456H666" opacity=".56"/>
    <path d="M0 382H86L124 420H244L282 458H424L464 498H582L612 468H660" opacity=".74"/>
    <path d="M0 646H118L170 594H290L342 646H452L500 694H582L620 656H662" opacity=".46"/>
    <path d="M0 658H124L176 606H284L336 658H446L494 706H576L614 668H656" opacity=".6"/>
    <path d="M0 670H130L182 618H278L330 670H440L488 718H570L608 680H650" opacity=".76"/>
    <path d="M0 682H136L188 630H272L324 682H434L482 730H564L602 692H644" opacity=".5"/>
    <path d="M0 866H146L200 812H326L378 760H492L536 716H612" opacity=".4"/>
    <path d="M0 878H152L206 824H332L384 772H498L542 728H618" opacity=".54"/>
    <path d="M0 890H158L212 836H338L390 784H504L548 740H624" opacity=".68"/>
    <path d="M0 902H164L218 848H344L396 796H510L554 752H630" opacity=".43"/>
  </g>
  <g class="hair" opacity=".72">
    <path d="M22 98H118L170 150H276L328 202H444L496 254H576L610 288H646"/>
    <path d="M22 146H88L140 198H246L298 250H414L466 302H540L574 336H618"/>
    <path d="M18 308H128L176 260H306L356 310H476L520 354H606L636 384H672"/>
    <path d="M18 388H80L118 426H238L276 464H418L458 504H576L606 474H654"/>
    <path d="M20 640H112L164 588H296L348 640H458L506 688H588L626 650H668"/>
    <path d="M20 688H142L194 636H266L318 688H428L476 736H558L596 698H638"/>
    <path d="M22 860H140L194 806H320L372 754H486L530 710H606"/>
    <path d="M22 908H170L224 854H350L402 802H516L560 758H636"/>
  </g>

  <!-- East buses are intentionally offset and differently grouped. -->
  <g class="fine">
    <path d="M1600 76H1478L1424 130H1308L1254 184H1142L1092 234H1020L986 268H950" opacity=".44"/>
    <path d="M1600 88H1472L1418 142H1302L1248 196H1136L1086 246H1014L980 280H944" opacity=".58"/>
    <path d="M1600 100H1466L1412 154H1296L1242 208H1130L1080 258H1008L974 292H938" opacity=".75"/>
    <path d="M1600 112H1460L1406 166H1290L1236 220H1124L1074 270H1002L968 304H932" opacity=".5"/>
    <path d="M1600 286H1464L1412 338H1298L1244 392H1126L1080 438H1000L970 408H934" opacity=".46"/>
    <path d="M1600 298H1458L1406 350H1292L1238 404H1120L1074 450H994L964 420H928" opacity=".62"/>
    <path d="M1600 310H1452L1400 362H1286L1232 416H1114L1068 462H988L958 432H922" opacity=".77"/>
    <path d="M1600 322H1446L1394 374H1280L1226 428H1108L1062 474H982L952 444H916" opacity=".52"/>
    <path d="M1600 616H1468L1416 564H1296L1246 614H1128L1080 662H1000L966 628H930" opacity=".4"/>
    <path d="M1600 628H1462L1410 576H1290L1240 626H1122L1074 674H994L960 640H924" opacity=".56"/>
    <path d="M1600 640H1456L1404 588H1284L1234 638H1116L1068 686H988L954 652H918" opacity=".72"/>
    <path d="M1600 652H1450L1398 600H1278L1228 650H1110L1062 698H982L948 664H912" opacity=".5"/>
    <path d="M1600 874H1474L1420 820H1302L1248 766H1130L1080 716H1008L974 750H938" opacity=".42"/>
    <path d="M1600 886H1468L1414 832H1296L1242 778H1124L1074 728H1002L968 762H932" opacity=".58"/>
    <path d="M1600 898H1462L1408 844H1290L1236 790H1118L1068 740H996L962 774H926" opacity=".72"/>
    <path d="M1600 910H1456L1402 856H1284L1230 802H1112L1062 752H990L956 786H920" opacity=".48"/>
  </g>
  <g class="hair" opacity=".72">
    <path d="M1578 70H1484L1430 124H1314L1260 178H1148L1098 228H1026L992 262H956"/>
    <path d="M1578 118H1454L1400 172H1284L1230 226H1118L1068 276H996L962 310H926"/>
    <path d="M1580 280H1470L1418 332H1304L1250 386H1132L1086 432H1006L976 402H940"/>
    <path d="M1580 328H1440L1388 380H1274L1220 434H1102L1056 480H976L946 450H910"/>
    <path d="M1580 610H1474L1422 558H1302L1252 608H1134L1086 656H1006L972 622H936"/>
    <path d="M1580 658H1444L1392 606H1272L1222 656H1104L1056 704H976L942 670H906"/>
    <path d="M1578 868H1480L1426 814H1308L1254 760H1136L1086 710H1014L980 744H944"/>
    <path d="M1578 916H1450L1396 862H1278L1224 808H1106L1056 758H984L950 792H914"/>
  </g>

  <!-- Vertical buses weave into the side hierarchy and terminate around the processor. -->
  <g class="fine">
    <path d="M222 0V82L274 134V220L326 272V352L378 404H496L538 446H650" opacity=".48"/>
    <path d="M234 0V76L286 128V214L338 266V346L390 398H502L544 440H656" opacity=".64"/>
    <path d="M246 0V70L298 122V208L350 260V340L402 392H508L550 434H662" opacity=".78"/>
    <path d="M474 0V90L522 138V226L570 274V350L616 396H678" opacity=".46"/>
    <path d="M486 0V84L534 132V220L582 268V344L628 390H684" opacity=".62"/>
    <path d="M498 0V78L546 126V214L594 262V338L640 384H690" opacity=".76"/>
    <path d="M1114 0V78L1064 128V216L1016 264V340L970 386H910" opacity=".72"/>
    <path d="M1126 0V84L1076 134V222L1028 270V346L982 392H916" opacity=".58"/>
    <path d="M1138 0V90L1088 140V228L1040 276V352L994 398H922" opacity=".44"/>
    <path d="M1372 0V84L1320 136V224L1268 276V350L1216 402H1102L1060 444H950" opacity=".74"/>
    <path d="M1384 0V90L1332 142V230L1280 282V356L1228 408H1108L1066 450H956" opacity=".58"/>
    <path d="M1396 0V96L1344 148V236L1292 288V362L1240 414H1114L1072 456H962" opacity=".42"/>
    <path d="M258 1000V914L310 862V776L362 724V654L414 602H510L554 558H650" opacity=".46"/>
    <path d="M270 1000V908L322 856V770L374 718V648L426 596H516L560 552H656" opacity=".64"/>
    <path d="M282 1000V902L334 850V764L386 712V642L438 590H522L566 546H662" opacity=".78"/>
    <path d="M506 1000V916L554 868V782L602 734V668L646 624H690" opacity=".5"/>
    <path d="M518 1000V910L566 862V776L614 728V662L658 618H696" opacity=".7"/>
    <path d="M1082 1000V910L1030 858V772L982 724V660L938 616H904" opacity=".7"/>
    <path d="M1094 1000V916L1042 864V778L994 730V666L950 622H910" opacity=".5"/>
    <path d="M1310 1000V916L1258 864V778L1206 726V656L1154 604H1064L1020 560H924" opacity=".76"/>
    <path d="M1322 1000V910L1270 858V772L1218 720V650L1166 598H1070L1026 554H930" opacity=".6"/>
    <path d="M1334 1000V904L1282 852V766L1230 714V644L1178 592H1076L1032 548H936" opacity=".44"/>
  </g>

  <!-- Dense central BGA-style breakout remains visible between and beneath snowflake arms. -->
  <g class="fine" opacity=".88">
    <path d="M642 294H686L718 326V414L746 442V492"/><path d="M636 306H674L706 338V420L734 448V500"/>
    <path d="M630 318H662L694 350V426L722 454V508"/><path d="M624 330H650L682 362V432L710 460V516"/>
    <path d="M666 390H700L728 418V466L756 494V548"/><path d="M660 402H688L716 430V472L744 500V556"/>
    <path d="M654 414H676L704 442V478L732 506V564"/><path d="M648 426H664L692 454V484L720 512V572"/>
    <path d="M950 268H914L882 300V396L854 424V482"/><path d="M944 280H902L870 312V402L842 430V490"/>
    <path d="M938 292H890L858 324V408L830 436V498"/><path d="M932 304H878L846 336V414L818 442V506"/>
    <path d="M934 408H900L872 436V470L844 498V558"/><path d="M928 420H888L860 448V476L832 504V566"/>
    <path d="M922 432H876L848 460V482L820 510V574"/><path d="M916 444H864L836 472V488L808 516V582"/>
    <path d="M650 656H686L718 624V586L750 554V508"/><path d="M656 668H698L730 636V592L762 560V500"/>
    <path d="M662 680H710L742 648V598L774 566V492"/><path d="M668 692H722L754 660V604L786 572V484"/>
    <path d="M912 664H878L846 632V590L814 558V508"/><path d="M918 652H890L858 620V584L826 552V500"/>
    <path d="M924 640H902L870 608V578L838 546V492"/><path d="M930 628H914L882 596V572L850 540V484"/>
  </g>
  <g class="hair" opacity=".92">
    <path d="M646 288H692L724 320V408L752 436V486"/><path d="M620 336H644L676 368V438L704 466V522"/>
    <path d="M956 262H908L876 294V390L848 418V476"/><path d="M926 310H872L840 342V420L812 448V512"/>
    <path d="M644 650H680L712 618V580L744 548V502"/><path d="M674 698H728L760 666V610L792 578V490"/>
    <path d="M906 670H872L840 638V596L808 564V514"/><path d="M936 622H920L888 590V566L856 534V478"/>
    <path d="M696 500H758M842 500H904M800 396V458M800 542V606"/>
  </g>

  <!-- Local chip fanouts and short nets. -->
  <g class="fine" opacity=".76">
    <path d="M170 226h58l26 26h62M170 238h52l26 26h68M170 250h46l26 26h74M170 262h40l26 26h80"/>
    <path d="M352 118v46l22 22v44M364 118v40l22 22v50M376 118v34l22 22v56"/>
    <path d="M582 118v52l26 26v58M594 118v46l26 26v64M606 118v40l26 26v70"/>
    <path d="M1290 204h-54l-26 26h-62M1290 216h-48l-26 26h-68M1290 228h-42l-26 26h-74"/>
    <path d="M1434 386h-66l-28-28h-70M1434 398h-60l-28-28h-76M1434 410h-54l-28-28h-82"/>
    <path d="M1382 704h-60l-26 26h-72M1382 716h-54l-26 26h-78M1382 728h-48l-26 26h-84"/>
    <path d="M1254 898v-52l-26-26v-54M1266 898v-46l-26-26v-60M1278 898v-40l-26-26v-66"/>
    <path d="M478 874v-52l26-26v-58M490 874v-46l26-26v-64M502 874v-40l26-26v-70"/>
    <path d="M174 746h58l28-28h70M174 758h64l28-28h64M174 770h70l28-28h58"/>
  </g>

  <!-- IC population: cardinal orientations only, irregularly distributed. -->
  <g>
    <g transform="translate(112 244)"><use href="#controller"/></g>
    <g transform="translate(352 82) rotate(90)"><use href="#soic"/></g>
    <g transform="translate(590 76)"><use href="#qfp"/></g>
    <g transform="translate(806 102) rotate(90)"><use href="#soic"/></g>
    <g transform="translate(1030 112) rotate(180)"><use href="#controller"/></g>
    <g transform="translate(1320 218) rotate(90)"><use href="#qfp"/></g>
    <g transform="translate(1490 390) rotate(180)"><use href="#controller"/></g>
    <g transform="translate(1218 390)"><use href="#soic"/></g>
    <g transform="translate(1450 708) rotate(90)"><use href="#qfp"/></g>
    <g transform="translate(1248 742) rotate(270)"><use href="#controller"/></g>
    <g transform="translate(1266 920)"><use href="#soic"/></g>
    <g transform="translate(1030 884) rotate(180)"><use href="#qfp"/></g>
    <g transform="translate(790 906) rotate(90)"><use href="#controller"/></g>
    <g transform="translate(484 908) rotate(270)"><use href="#soic"/></g>
    <g transform="translate(274 742) rotate(180)"><use href="#qfp"/></g>
    <g transform="translate(94 748) rotate(90)"><use href="#soic"/></g>
    <g transform="translate(116 490) rotate(270)"><use href="#qfp"/></g>
    <g transform="translate(350 474)"><use href="#controller"/></g>
    <g transform="translate(1510 116) rotate(90)"><use href="#soic"/></g>
    <g transform="translate(1512 892) rotate(270)"><use href="#controller"/></g>
  </g>

  <!-- Passives form decoupling banks and directional local clusters. -->
  <g>
    <use href="#resistor" transform="translate(204 82)"/><use href="#capacitor" transform="translate(204 102)"/>
    <use href="#resistor" transform="translate(434 72) rotate(90)"/><use href="#capacitor" transform="translate(458 72) rotate(90)"/>
    <use href="#resistor" transform="translate(686 78)"/><use href="#capacitor" transform="translate(724 78)"/>
    <use href="#resistor" transform="translate(892 88) rotate(90)"/><use href="#capacitor" transform="translate(918 88) rotate(90)"/>
    <use href="#resistor" transform="translate(1172 114)"/><use href="#capacitor" transform="translate(1210 114)"/>
    <use href="#resistor" transform="translate(1402 194) rotate(90)"/><use href="#capacitor" transform="translate(1428 194) rotate(90)"/>
    <use href="#resistor" transform="translate(1510 268)"/><use href="#capacitor" transform="translate(1510 292)"/>
    <use href="#resistor" transform="translate(1338 348)"/><use href="#capacitor" transform="translate(1376 348)"/>
    <use href="#resistor" transform="translate(1520 508) rotate(90)"/><use href="#capacitor" transform="translate(1494 508) rotate(90)"/>
    <use href="#resistor" transform="translate(1370 614)"/><use href="#capacitor" transform="translate(1408 614)"/>
    <use href="#resistor" transform="translate(1318 820) rotate(90)"/><use href="#capacitor" transform="translate(1344 820) rotate(90)"/>
    <use href="#resistor" transform="translate(1150 898)"/><use href="#capacitor" transform="translate(1112 898)"/>
    <use href="#resistor" transform="translate(910 914) rotate(90)"/><use href="#capacitor" transform="translate(936 914) rotate(90)"/>
    <use href="#resistor" transform="translate(674 916)"/><use href="#capacitor" transform="translate(636 916)"/>
    <use href="#resistor" transform="translate(382 884) rotate(90)"/><use href="#capacitor" transform="translate(408 884) rotate(90)"/>
    <use href="#resistor" transform="translate(168 842)"/><use href="#capacitor" transform="translate(206 842)"/>
    <use href="#resistor" transform="translate(92 638) rotate(90)"/><use href="#capacitor" transform="translate(118 638) rotate(90)"/>
    <use href="#resistor" transform="translate(230 610)"/><use href="#capacitor" transform="translate(268 610)"/>
    <use href="#resistor" transform="translate(226 414) rotate(90)"/><use href="#capacitor" transform="translate(252 414) rotate(90)"/>
    <use href="#resistor" transform="translate(278 316)"/><use href="#capacitor" transform="translate(316 316)"/>
    <use href="#resistor" transform="translate(474 332) rotate(90)"/><use href="#capacitor" transform="translate(500 332) rotate(90)"/>
    <use href="#resistor" transform="translate(1116 312)"/><use href="#capacitor" transform="translate(1154 312)"/>
    <use href="#resistor" transform="translate(1088 524) rotate(90)"/><use href="#capacitor" transform="translate(1114 524) rotate(90)"/>
    <use href="#resistor" transform="translate(456 634)"/><use href="#capacitor" transform="translate(494 634)"/>
    <use href="#resistor" transform="translate(1136 686)"/><use href="#capacitor" transform="translate(1174 686)"/>
  </g>

  <!-- Vias and test points punctuate bus transitions and central breakout. -->
  <g>
    <use href="#testpad" transform="translate(54 540)"/><use href="#testpad" transform="translate(1544 552)"/>
    <use href="#testpad" transform="translate(750 54)"/><use href="#testpad" transform="translate(850 946)"/>
    <use href="#via" transform="translate(322 208)"/><use href="#via" transform="translate(350 316)"/><use href="#via" transform="translate(390 398)"/>
    <use href="#via" transform="translate(342 646)"/><use href="#via" transform="translate(390 784)"/><use href="#via" transform="translate(522 138)"/>
    <use href="#via" transform="translate(570 274)"/><use href="#via" transform="translate(582 268)"/><use href="#via" transform="translate(614 728)"/>
    <use href="#via" transform="translate(1254 184)"/><use href="#via" transform="translate(1244 392)"/><use href="#via" transform="translate(1234 638)"/>
    <use href="#via" transform="translate(1236 790)"/><use href="#via" transform="translate(1086 246)"/><use href="#via" transform="translate(1074 450)"/>
    <use href="#via" transform="translate(1074 674)"/><use href="#via" transform="translate(1074 728)"/>
    <use href="#microvia" transform="translate(642 294)"/><use href="#microvia" transform="translate(630 318)"/>
    <use href="#microvia" transform="translate(666 390)"/><use href="#microvia" transform="translate(654 414)"/>
    <use href="#microvia" transform="translate(950 268)"/><use href="#microvia" transform="translate(938 292)"/>
    <use href="#microvia" transform="translate(934 408)"/><use href="#microvia" transform="translate(922 432)"/>
    <use href="#microvia" transform="translate(650 656)"/><use href="#microvia" transform="translate(662 680)"/>
    <use href="#microvia" transform="translate(912 664)"/><use href="#microvia" transform="translate(924 640)"/>
    <use href="#microvia" transform="translate(696 500)"/><use href="#microvia" transform="translate(904 500)"/>
    <use href="#microvia" transform="translate(800 396)"/><use href="#microvia" transform="translate(800 606)"/>
  </g>

  <!-- Simple, low-opacity edge terminations; no ornamental border. -->
  <g opacity=".42">
    <use href="#edgepad" transform="translate(10 104)"/><use href="#edgepad" transform="translate(10 140)"/>
    <use href="#edgepad" transform="translate(10 326)"/><use href="#edgepad" transform="translate(10 382)"/>
    <use href="#edgepad" transform="translate(10 658)"/><use href="#edgepad" transform="translate(10 682)"/>
    <use href="#edgepad" transform="translate(10 878)"/><use href="#edgepad" transform="translate(10 902)"/>
    <use href="#edgepad" transform="translate(1590 88)"/><use href="#edgepad" transform="translate(1590 112)"/>
    <use href="#edgepad" transform="translate(1590 298)"/><use href="#edgepad" transform="translate(1590 322)"/>
    <use href="#edgepad" transform="translate(1590 628)"/><use href="#edgepad" transform="translate(1590 652)"/>
    <use href="#edgepad" transform="translate(1590 886)"/><use href="#edgepad" transform="translate(1590 910)"/>
    <use href="#edgepad" transform="translate(234 10) rotate(90)"/><use href="#edgepad" transform="translate(486 10) rotate(90)"/>
    <use href="#edgepad" transform="translate(1126 10) rotate(90)"/><use href="#edgepad" transform="translate(1384 10) rotate(90)"/>
    <use href="#edgepad" transform="translate(270 990) rotate(90)"/><use href="#edgepad" transform="translate(518 990) rotate(90)"/>
    <use href="#edgepad" transform="translate(1094 990) rotate(90)"/><use href="#edgepad" transform="translate(1322 990) rotate(90)"/>
  </g>
</svg>
