<?xml version="1.0" encoding="UTF-8" standalone="no"?>
<!--
  White-fill silhouette of the THREE "light" arms only of the NixOS
  snowflake. Counterpart to snowflake-arms-dark.svg — see comment
  there for the per-arm gradient pipeline.
-->
<svg xmlns="http://www.w3.org/2000/svg"
     width="512" height="512" viewBox="0 0 512 512"
     version="1.1">
  <g transform="matrix(1.25,0,0,-1.25,0,512)">
    <g transform="matrix(1.0205226,0,0,1.0205226,0,27.171437)">
      <path fill="#FFFFFF"
            d="M 157.738,239.515 59.961,70.183 37.133,108.882 63.484,154.229 11.152,154.366 0,173.702 l 11.391,19.777 74.488,-0.234 26.769,46.152 45.09,0.118 z"/>
      <path fill="#FFFFFF"
            d="M 165.238,104.155 360.77,104.143 338.672,65.026 286.223,65.171 312.27,19.784 301.102,0.456 278.277,0.429 l -37.039,64.629 -53.355,0.109 -22.645,38.988 z"/>
      <path fill="#FFFFFF"
            d="m 279.043,178.35 -97.758,169.34 44.926,0.422 26.101,-45.496 26.286,45.254 22.32,-0.008 11.434,-19.754 -37.45,-64.39 26.582,-46.262 -22.441,-39.106 z"/>
    </g>
  </g>
</svg>
